<svg width="453" height="43" viewBox="0 0 453 43" fill="none" xmlns="http://www.w3.org/2000/svg">
<path d="M197.213 16.663H198.452V21.1278C198.452 22.2177 198.511 22.9677 198.628 23.3778C198.804 23.9637 199.138 24.4266 199.63 24.7665C200.128 25.1063 200.72 25.2762 201.405 25.2762C202.091 25.2762 202.671 25.1122 203.146 24.7841C203.626 24.4501 203.957 24.0135 204.139 23.4745C204.262 23.1053 204.323 22.3231 204.323 21.1278V16.663H205.58V21.3563C205.58 22.6747 205.425 23.6678 205.114 24.3358C204.81 25.0038 204.347 25.5282 203.726 25.9091C203.11 26.2841 202.337 26.4716 201.405 26.4716C200.474 26.4716 199.694 26.2841 199.067 25.9091C198.446 25.5282 197.98 25.0009 197.67 24.327C197.365 23.6473 197.213 22.6278 197.213 21.2684V16.663ZM208.34 16.663H209.562V18.4208C210.048 17.7528 210.607 17.2518 211.24 16.9178C211.873 16.5839 212.579 16.4169 213.358 16.4169C214.718 16.4169 215.881 16.9061 216.848 17.8846C217.814 18.8632 218.298 20.0409 218.298 21.4178C218.298 22.8241 217.817 24.0194 216.856 25.0038C215.901 25.9823 214.747 26.4716 213.394 26.4716C212.632 26.4716 211.932 26.3134 211.293 25.9969C210.654 25.6805 210.077 25.2089 209.562 24.5819V29.7235H208.34V16.663ZM213.262 17.6034C212.195 17.6034 211.296 17.9755 210.563 18.7196C209.837 19.4637 209.474 20.3895 209.474 21.4969C209.474 22.2235 209.635 22.8768 209.957 23.4569C210.285 24.037 210.751 24.4969 211.354 24.8368C211.964 25.1766 212.605 25.3466 213.279 25.3466C213.941 25.3466 214.562 25.1766 215.143 24.8368C215.729 24.4911 216.194 24.0106 216.54 23.3954C216.886 22.7802 217.059 22.1356 217.059 21.4618C217.059 20.7821 216.886 20.1376 216.54 19.5282C216.2 18.9188 215.74 18.4471 215.16 18.1132C214.58 17.7733 213.947 17.6034 213.262 17.6034ZM220.425 12.9716H221.655V26.2255H220.425V12.9716ZM228.739 16.4169C230.21 16.4169 231.429 16.9501 232.396 18.0165C233.274 18.9891 233.714 20.1405 233.714 21.4706C233.714 22.8065 233.248 23.9755 232.316 24.9774C231.391 25.9735 230.198 26.4716 228.739 26.4716C227.274 26.4716 226.076 25.9735 225.145 24.9774C224.219 23.9755 223.756 22.8065 223.756 21.4706C223.756 20.1464 224.195 18.9979 225.074 18.0253C226.041 16.953 227.263 16.4169 228.739 16.4169ZM228.739 17.621C227.72 17.621 226.844 17.9989 226.111 18.7548C225.379 19.5106 225.013 20.4247 225.013 21.4969C225.013 22.1884 225.18 22.8329 225.514 23.4305C225.848 24.0282 226.299 24.4911 226.867 24.8192C227.436 25.1415 228.06 25.3026 228.739 25.3026C229.419 25.3026 230.043 25.1415 230.611 24.8192C231.18 24.4911 231.631 24.0282 231.965 23.4305C232.299 22.8329 232.466 22.1884 232.466 21.4969C232.466 20.4247 232.097 19.5106 231.358 18.7548C230.626 17.9989 229.753 17.621 228.739 17.621ZM245.535 16.663V26.2255H244.322V24.5819C243.807 25.2089 243.227 25.6805 242.582 25.9969C241.943 26.3134 241.243 26.4716 240.481 26.4716C239.128 26.4716 237.971 25.9823 237.01 25.0038C236.055 24.0194 235.577 22.8241 235.577 21.4178C235.577 20.0409 236.061 18.8632 237.027 17.8846C237.994 16.9061 239.157 16.4169 240.517 16.4169C241.302 16.4169 242.011 16.5839 242.644 16.9178C243.282 17.2518 243.842 17.7528 244.322 18.4208V16.663H245.535ZM240.613 17.6034C239.928 17.6034 239.295 17.7733 238.715 18.1132C238.135 18.4471 237.672 18.9188 237.326 19.5282C236.986 20.1376 236.816 20.7821 236.816 21.4618C236.816 22.1356 236.989 22.7802 237.335 23.3954C237.681 24.0106 238.144 24.4911 238.724 24.8368C239.31 25.1766 239.937 25.3466 240.604 25.3466C241.278 25.3466 241.917 25.1766 242.521 24.8368C243.124 24.4969 243.587 24.037 243.909 23.4569C244.237 22.8768 244.401 22.2235 244.401 21.4969C244.401 20.3895 244.035 19.4637 243.303 18.7196C242.576 17.9755 241.68 17.6034 240.613 17.6034ZM257.857 12.9716V26.2255H256.645V24.5819C256.129 25.2089 255.549 25.6805 254.904 25.9969C254.266 26.3134 253.565 26.4716 252.804 26.4716C251.45 26.4716 250.293 25.9823 249.332 25.0038C248.377 24.0194 247.899 22.8241 247.899 21.4178C247.899 20.0409 248.383 18.8632 249.35 17.8846C250.316 16.9061 251.479 16.4169 252.839 16.4169C253.624 16.4169 254.333 16.5839 254.966 16.9178C255.604 17.2518 256.164 17.7528 256.645 18.4208V12.9716H257.857ZM252.936 17.6034C252.25 17.6034 251.617 17.7733 251.037 18.1132C250.457 18.4471 249.994 18.9188 249.648 19.5282C249.309 20.1376 249.139 20.7821 249.139 21.4618C249.139 22.1356 249.312 22.7802 249.657 23.3954C250.003 24.0106 250.466 24.4911 251.046 24.8368C251.632 25.1766 252.259 25.3466 252.927 25.3466C253.601 25.3466 254.239 25.1766 254.843 24.8368C255.446 24.4969 255.909 24.037 256.231 23.4569C256.56 22.8768 256.724 22.2235 256.724 21.4969C256.724 20.3895 256.357 19.4637 255.625 18.7196C254.898 17.9755 254.002 17.6034 252.936 17.6034ZM266.998 24.2919C267.297 24.2919 267.552 24.3973 267.763 24.6083C267.974 24.8192 268.079 25.077 268.079 25.3817C268.079 25.6805 267.974 25.9384 267.763 26.1552C267.552 26.3661 267.297 26.4716 266.998 26.4716C266.699 26.4716 266.444 26.3661 266.233 26.1552C266.022 25.9384 265.917 25.6805 265.917 25.3817C265.917 25.077 266.022 24.8192 266.233 24.6083C266.444 24.3973 266.699 24.2919 266.998 24.2919ZM270.25 26.2255L272.087 13.2968H272.298L277.554 23.9052L282.757 13.2968H282.968L284.822 26.2255H283.548L282.282 16.9794L277.712 26.2255H277.387L272.755 16.9091L271.498 26.2255H270.25ZM287.371 13.2968H289.946C291.423 13.2968 292.419 13.3612 292.935 13.4901C293.673 13.6718 294.276 14.0468 294.745 14.6151C295.214 15.1776 295.448 15.8866 295.448 16.7421C295.448 17.6034 295.22 18.3153 294.763 18.8778C294.306 19.4344 293.676 19.8094 292.873 20.0028C292.287 20.1434 291.191 20.2137 289.586 20.2137H288.663V26.2255H287.371V13.2968ZM288.663 14.5536V18.9481L290.852 18.9745C291.736 18.9745 292.384 18.8954 292.794 18.7372C293.204 18.5731 293.526 18.3124 293.761 17.955C293.995 17.5917 294.112 17.1874 294.112 16.7421C294.112 16.3085 293.995 15.913 293.761 15.5555C293.526 15.1923 293.216 14.9344 292.829 14.7821C292.448 14.6298 291.821 14.5536 290.948 14.5536H288.663ZM304.123 12.9716H304.387V21.9803H305.951V23.2196H304.387V26.2255H303.095V23.2196H296.916L304.123 12.9716ZM303.095 21.9803V16.5927L299.289 21.9803H303.095ZM309.036 23.8524L310.223 24.4149L308.438 27.7372L307.568 27.368L309.036 23.8524ZM319.152 24.2919C319.451 24.2919 319.706 24.3973 319.917 24.6083C320.128 24.8192 320.233 25.077 320.233 25.3817C320.233 25.6805 320.128 25.9384 319.917 26.1552C319.706 26.3661 319.451 26.4716 319.152 26.4716C318.854 26.4716 318.599 26.3661 318.388 26.1552C318.177 25.9384 318.071 25.6805 318.071 25.3817C318.071 25.077 318.177 24.8192 318.388 24.6083C318.599 24.3973 318.854 24.2919 319.152 24.2919ZM327.221 13.2968H328.521V22.0243C328.521 23.3661 328.416 24.3007 328.205 24.828C328 25.3495 327.654 25.7684 327.168 26.0848C326.682 26.3954 326.093 26.5507 325.401 26.5507C324.88 26.5507 324.364 26.4481 323.854 26.243C323.351 26.0438 322.791 25.6893 322.176 25.1796L322.861 24.1512C323.535 24.6259 324.095 24.9598 324.54 25.1532C324.833 25.2821 325.12 25.3466 325.401 25.3466C325.771 25.3466 326.104 25.2352 326.403 25.0126C326.708 24.7899 326.919 24.494 327.036 24.1249C327.159 23.7557 327.221 23.0409 327.221 21.9803V13.2968ZM331.668 13.2968H334.243C335.72 13.2968 336.716 13.3612 337.231 13.4901C337.97 13.6718 338.573 14.0468 339.042 14.6151C339.511 15.1776 339.745 15.8866 339.745 16.7421C339.745 17.6034 339.517 18.3153 339.06 18.8778C338.603 19.4344 337.973 19.8094 337.17 20.0028C336.584 20.1434 335.488 20.2137 333.883 20.2137H332.96V26.2255H331.668V13.2968ZM332.96 14.5536V18.9481L335.148 18.9745C336.033 18.9745 336.681 18.8954 337.091 18.7372C337.501 18.5731 337.823 18.3124 338.058 17.955C338.292 17.5917 338.409 17.1874 338.409 16.7421C338.409 16.3085 338.292 15.913 338.058 15.5555C337.823 15.1923 337.513 14.9344 337.126 14.7821C336.745 14.6298 336.118 14.5536 335.245 14.5536H332.96ZM342.338 13.2968H349.747V14.5712H343.63V18.6141H349.694V19.8798H343.63V24.951H349.694V26.2255H342.338V13.2968ZM364.451 15.4677L363.449 16.4169C362.729 15.7079 361.938 15.1718 361.076 14.8085C360.221 14.4393 359.386 14.2548 358.571 14.2548C357.558 14.2548 356.591 14.5038 355.671 15.0018C354.757 15.4999 354.048 16.1766 353.544 17.0321C353.04 17.8817 352.788 18.7811 352.788 19.7303C352.788 20.703 353.049 21.6288 353.57 22.5077C354.092 23.3807 354.812 24.0692 355.732 24.5731C356.652 25.0712 357.66 25.3202 358.756 25.3202C360.086 25.3202 361.211 24.9452 362.131 24.1952C363.051 23.4452 363.596 22.4725 363.766 21.2772H359.644V20.0292H365.216C365.204 22.0272 364.609 23.6151 363.432 24.7928C362.26 25.9647 360.689 26.5507 358.721 26.5507C356.33 26.5507 354.438 25.7362 353.043 24.1073C351.971 22.8534 351.435 21.4032 351.435 19.7567C351.435 18.5321 351.742 17.3925 352.357 16.3378C352.973 15.2831 353.816 14.4598 354.889 13.868C355.961 13.2704 357.174 12.9716 358.527 12.9716C359.623 12.9716 360.654 13.1708 361.621 13.5692C362.588 13.9618 363.531 14.5946 364.451 15.4677ZM368.696 23.8524L369.883 24.4149L368.099 27.7372L367.229 27.368L368.696 23.8524ZM381.396 12.9716V14.1757C380.945 13.9823 380.559 13.8856 380.236 13.8856C379.996 13.8856 379.797 13.9354 379.639 14.035C379.48 14.1288 379.381 14.2401 379.34 14.369C379.299 14.4921 379.278 14.826 379.278 15.371V16.663H381.273V17.7177H379.27V26.2255H378.039V17.7177H376.782V16.663H378.039V15.1688C378.039 14.4833 378.101 13.994 378.224 13.701C378.353 13.4081 378.566 13.1737 378.865 12.9979C379.17 12.8163 379.536 12.7255 379.964 12.7255C380.362 12.7255 380.84 12.8075 381.396 12.9716ZM387.646 16.4169C389.116 16.4169 390.335 16.9501 391.302 18.0165C392.181 18.9891 392.62 20.1405 392.62 21.4706C392.62 22.8065 392.154 23.9755 391.223 24.9774C390.297 25.9735 389.104 26.4716 387.646 26.4716C386.181 26.4716 384.982 25.9735 384.051 24.9774C383.125 23.9755 382.662 22.8065 382.662 21.4706C382.662 20.1464 383.102 18.9979 383.98 18.0253C384.947 16.953 386.169 16.4169 387.646 16.4169ZM387.646 17.621C386.626 17.621 385.75 17.9989 385.018 18.7548C384.285 19.5106 383.919 20.4247 383.919 21.4969C383.919 22.1884 384.086 22.8329 384.42 23.4305C384.754 24.0282 385.205 24.4911 385.773 24.8192C386.342 25.1415 386.966 25.3026 387.646 25.3026C388.325 25.3026 388.949 25.1415 389.518 24.8192C390.086 24.4911 390.537 24.0282 390.871 23.4305C391.205 22.8329 391.372 22.1884 391.372 21.4969C391.372 20.4247 391.003 19.5106 390.265 18.7548C389.532 17.9989 388.659 17.621 387.646 17.621ZM394.448 16.663H395.705V18.0604C396.08 17.5096 396.476 17.0995 396.892 16.83C397.308 16.5546 397.741 16.4169 398.192 16.4169C398.532 16.4169 398.896 16.5253 399.282 16.7421L398.641 17.7792C398.383 17.6678 398.166 17.6122 397.99 17.6122C397.58 17.6122 397.185 17.7821 396.804 18.1219C396.423 18.4559 396.133 18.9774 395.934 19.6864C395.781 20.2313 395.705 21.3329 395.705 22.9911V26.2255H394.448V16.663ZM400.319 16.663H401.541V18.3153C401.969 17.7059 402.408 17.2606 402.859 16.9794C403.48 16.6044 404.134 16.4169 404.819 16.4169C405.282 16.4169 405.722 16.5077 406.138 16.6893C406.554 16.871 406.894 17.1141 407.157 17.4188C407.421 17.7177 407.649 18.1483 407.843 18.7108C408.253 17.9608 408.766 17.3925 409.381 17.0057C409.996 16.6132 410.658 16.4169 411.367 16.4169C412.029 16.4169 412.612 16.5839 413.116 16.9178C413.626 17.2518 414.004 17.7177 414.25 18.3153C414.496 18.913 414.619 19.8094 414.619 21.0048V26.2255H413.362V21.0048C413.362 19.9794 413.289 19.2762 413.143 18.8954C412.996 18.5087 412.744 18.1981 412.387 17.9637C412.035 17.7294 411.613 17.6122 411.121 17.6122C410.523 17.6122 409.976 17.788 409.478 18.1395C408.985 18.4911 408.625 18.9598 408.396 19.5458C408.168 20.1317 408.054 21.1102 408.054 22.4813V26.2255H406.832V21.33C406.832 20.1757 406.759 19.3934 406.612 18.9833C406.472 18.5673 406.223 18.2362 405.865 17.9901C405.508 17.7382 405.083 17.6122 404.591 17.6122C404.022 17.6122 403.489 17.785 402.991 18.1307C402.499 18.4706 402.133 18.9305 401.893 19.5106C401.658 20.0907 401.541 20.9784 401.541 22.1737V26.2255H400.319V16.663ZM426.748 16.663V26.2255H425.535V24.5819C425.02 25.2089 424.439 25.6805 423.795 25.9969C423.156 26.3134 422.456 26.4716 421.694 26.4716C420.341 26.4716 419.184 25.9823 418.223 25.0038C417.268 24.0194 416.79 22.8241 416.79 21.4178C416.79 20.0409 417.273 18.8632 418.24 17.8846C419.207 16.9061 420.37 16.4169 421.729 16.4169C422.515 16.4169 423.224 16.5839 423.856 16.9178C424.495 17.2518 425.055 17.7528 425.535 18.4208V16.663H426.748ZM421.826 17.6034C421.141 17.6034 420.508 17.7733 419.928 18.1132C419.348 18.4471 418.885 18.9188 418.539 19.5282C418.199 20.1376 418.029 20.7821 418.029 21.4618C418.029 22.1356 418.202 22.7802 418.548 23.3954C418.894 24.0106 419.356 24.4911 419.937 24.8368C420.522 25.1766 421.149 25.3466 421.817 25.3466C422.491 25.3466 423.13 25.1766 423.733 24.8368C424.337 24.4969 424.8 24.037 425.122 23.4569C425.45 22.8768 425.614 22.2235 425.614 21.4969C425.614 20.3895 425.248 19.4637 424.516 18.7196C423.789 17.9755 422.893 17.6034 421.826 17.6034ZM430.598 13.1122H431.837V16.663H433.788V17.7177H431.837V26.2255H430.598V17.7177H428.919V16.663H430.598V13.1122Z" fill="#5A5A5A"/>
<rect x="1.5" y="1.5" width="450" height="40" rx="20" stroke="url(#paint0_linear_690_29533)" stroke-width="3"/>
<rect x="1.5" y="1.5" width="173" height="40" rx="20" fill="url(#paint1_linear_690_29533)" stroke="url(#paint2_linear_690_29533)" stroke-width="3"/>
<path d="M25.543 15.6348H28.2871V24.9316C28.2871 25.7324 28.3555 26.2988 28.4922 26.6309C28.6354 26.9629 28.8665 27.2298 29.1855 27.4316C29.5111 27.627 29.9017 27.7246 30.3574 27.7246C30.8392 27.7246 31.2526 27.6139 31.5977 27.3926C31.9492 27.1712 32.1901 26.8913 32.3203 26.5527C32.457 26.2077 32.5254 25.5534 32.5254 24.5898V15.6348H35.2695V24.1992C35.2695 25.6445 35.1882 26.6471 35.0254 27.207C34.8626 27.7669 34.5501 28.3073 34.0879 28.8281C33.6322 29.349 33.1048 29.7363 32.5059 29.9902C31.9069 30.2376 31.2103 30.3613 30.416 30.3613C29.3743 30.3613 28.4661 30.1237 27.6914 29.6484C26.9232 29.1667 26.373 28.5677 26.041 27.8516C25.709 27.1289 25.543 25.9115 25.543 24.1992V15.6348ZM40.8066 19.375V20.5469C41.2884 20.0651 41.8092 19.7038 42.3691 19.4629C42.929 19.222 43.528 19.1016 44.166 19.1016C45.5527 19.1016 46.7311 19.6257 47.7012 20.6738C48.6712 21.722 49.1562 23.0664 49.1562 24.707C49.1562 26.2891 48.6549 27.6139 47.6523 28.6816C46.6497 29.7428 45.4616 30.2734 44.0879 30.2734C43.4759 30.2734 42.9062 30.166 42.3789 29.9512C41.8516 29.7298 41.3275 29.3717 40.8066 28.877V33.8867H38.1602V19.375H40.8066ZM43.6094 21.5625C42.7695 21.5625 42.0729 21.849 41.5195 22.4219C40.9661 22.9948 40.6895 23.7435 40.6895 24.668C40.6895 25.612 40.9661 26.377 41.5195 26.9629C42.0729 27.5423 42.7695 27.832 43.6094 27.832C44.4232 27.832 45.1068 27.5358 45.6602 26.9434C46.2201 26.3509 46.5 25.5957 46.5 24.6777C46.5 23.7663 46.2266 23.0208 45.6797 22.4414C45.1328 21.8555 44.4427 21.5625 43.6094 21.5625ZM51.0801 15.2734H53.7461V30H51.0801V15.2734ZM61.1582 19.1016C62.1608 19.1016 63.1016 19.3522 63.9805 19.8535C64.8659 20.3548 65.556 21.0352 66.0508 21.8945C66.5456 22.7539 66.793 23.6816 66.793 24.6777C66.793 25.6803 66.5423 26.6178 66.041 27.4902C65.5462 28.3626 64.8691 29.0462 64.0098 29.541C63.1504 30.0293 62.2031 30.2734 61.168 30.2734C59.6445 30.2734 58.3424 29.7331 57.2617 28.6523C56.1875 27.5651 55.6504 26.2467 55.6504 24.6973C55.6504 23.0371 56.2591 21.6536 57.4766 20.5469C58.5443 19.5833 59.7715 19.1016 61.1582 19.1016ZM61.1973 21.6113C60.3704 21.6113 59.6803 21.901 59.127 22.4805C58.5801 23.0534 58.3066 23.7891 58.3066 24.6875C58.3066 25.612 58.5768 26.3607 59.1172 26.9336C59.6641 27.5065 60.3542 27.793 61.1875 27.793C62.0208 27.793 62.7142 27.5033 63.2676 26.9238C63.821 26.3444 64.0977 25.599 64.0977 24.6875C64.0977 23.776 63.8242 23.0371 63.2773 22.4707C62.737 21.8978 62.0436 21.6113 61.1973 21.6113ZM76.832 19.375H79.4883V30H76.832V28.877C76.3112 29.3717 75.7871 29.7298 75.2598 29.9512C74.7389 30.166 74.1725 30.2734 73.5605 30.2734C72.1868 30.2734 70.9987 29.7428 69.9961 28.6816C68.9935 27.6139 68.4922 26.2891 68.4922 24.707C68.4922 23.0664 68.9772 21.722 69.9473 20.6738C70.9173 19.6257 72.0957 19.1016 73.4824 19.1016C74.1204 19.1016 74.7194 19.222 75.2793 19.4629C75.8392 19.7038 76.3568 20.0651 76.832 20.5469V19.375ZM74.0293 21.5625C73.2025 21.5625 72.5156 21.8555 71.9688 22.4414C71.4219 23.0208 71.1484 23.7663 71.1484 24.6777C71.1484 25.5957 71.4251 26.3509 71.9785 26.9434C72.5384 27.5358 73.2253 27.832 74.0391 27.832C74.8789 27.832 75.5755 27.5423 76.1289 26.9629C76.6823 26.377 76.959 25.612 76.959 24.668C76.959 23.7435 76.6823 22.9948 76.1289 22.4219C75.5755 21.849 74.8757 21.5625 74.0293 21.5625ZM90.0352 15.2734H92.6914V30H90.0352V28.877C89.5143 29.3717 88.9902 29.7298 88.4629 29.9512C87.9421 30.166 87.3757 30.2734 86.7637 30.2734C85.39 30.2734 84.2018 29.7428 83.1992 28.6816C82.1966 27.6139 81.6953 26.2891 81.6953 24.707C81.6953 23.0664 82.1803 21.722 83.1504 20.6738C84.1204 19.6257 85.2988 19.1016 86.6855 19.1016C87.3236 19.1016 87.9225 19.222 88.4824 19.4629C89.0423 19.7038 89.5599 20.0651 90.0352 20.5469V15.2734ZM87.2324 21.5625C86.4056 21.5625 85.7188 21.8555 85.1719 22.4414C84.625 23.0208 84.3516 23.7663 84.3516 24.6777C84.3516 25.5957 84.6283 26.3509 85.1816 26.9434C85.7415 27.5358 86.4284 27.832 87.2422 27.832C88.082 27.832 88.7786 27.5423 89.332 26.9629C89.8854 26.377 90.1621 25.612 90.1621 24.668C90.1621 23.7435 89.8854 22.9948 89.332 22.4219C88.7786 21.849 88.0788 21.5625 87.2324 21.5625ZM108.844 19.375H111.5V30H108.844V28.877C108.323 29.3717 107.799 29.7298 107.271 29.9512C106.751 30.166 106.184 30.2734 105.572 30.2734C104.199 30.2734 103.01 29.7428 102.008 28.6816C101.005 27.6139 100.504 26.2891 100.504 24.707C100.504 23.0664 100.989 21.722 101.959 20.6738C102.929 19.6257 104.107 19.1016 105.494 19.1016C106.132 19.1016 106.731 19.222 107.291 19.4629C107.851 19.7038 108.368 20.0651 108.844 20.5469V19.375ZM106.041 21.5625C105.214 21.5625 104.527 21.8555 103.98 22.4414C103.434 23.0208 103.16 23.7663 103.16 24.6777C103.16 25.5957 103.437 26.3509 103.99 26.9434C104.55 27.5358 105.237 27.832 106.051 27.832C106.891 27.832 107.587 27.5423 108.141 26.9629C108.694 26.377 108.971 25.612 108.971 24.668C108.971 23.7435 108.694 22.9948 108.141 22.4219C107.587 21.849 106.887 21.5625 106.041 21.5625ZM120.133 15.6348H127.262V18.3008H122.838V20.9082H127.262V23.5352H122.838V30H120.133V15.6348ZM130.455 15C130.924 15 131.324 15.1693 131.656 15.5078C131.995 15.8464 132.164 16.2565 132.164 16.7383C132.164 17.2135 131.998 17.6204 131.666 17.959C131.334 18.291 130.937 18.457 130.475 18.457C129.999 18.457 129.592 18.2878 129.254 17.9492C128.922 17.6042 128.756 17.1875 128.756 16.6992C128.756 16.2305 128.922 15.8301 129.254 15.498C129.586 15.166 129.986 15 130.455 15ZM129.117 19.375H131.793V30H129.117V19.375ZM133.932 15.2734H136.598V30H133.932V15.2734ZM149.664 25.459H141.1C141.223 26.2142 141.552 26.8164 142.086 27.2656C142.626 27.7083 143.313 27.9297 144.146 27.9297C145.143 27.9297 145.999 27.5814 146.715 26.8848L148.961 27.9395C148.401 28.7337 147.73 29.3229 146.949 29.707C146.168 30.0846 145.24 30.2734 144.166 30.2734C142.499 30.2734 141.142 29.7493 140.094 28.7012C139.046 27.6465 138.521 26.3281 138.521 24.7461C138.521 23.125 139.042 21.7806 140.084 20.7129C141.132 19.6387 142.444 19.1016 144.02 19.1016C145.693 19.1016 147.053 19.6387 148.102 20.7129C149.15 21.7806 149.674 23.1934 149.674 24.9512L149.664 25.459ZM146.988 23.3594C146.812 22.7669 146.464 22.2852 145.943 21.9141C145.429 21.543 144.83 21.3574 144.146 21.3574C143.404 21.3574 142.753 21.5658 142.193 21.9824C141.842 22.2428 141.516 22.7018 141.217 23.3594H146.988Z" fill="#F0F0F0"/>
<defs>
<linearGradient id="paint0_linear_690_29533" x1="10.0667" y1="21.9778" x2="453" y2="21.9778" gradientUnits="userSpaceOnUse">
<stop stop-color="#5F70AC"/>
<stop offset="0.133333" stop-color="#526195" stop-opacity="0.5"/>
<stop offset="0.836458" stop-color="#5999AD" stop-opacity="0.5"/>
<stop offset="1" stop-color="#5AA6B2"/>
</linearGradient>
<linearGradient id="paint1_linear_690_29533" x1="-9.66802e-07" y1="31.5333" x2="178.965" y2="30.9079" gradientUnits="userSpaceOnUse">
<stop stop-color="#5D70B3"/>
<stop offset="0.159375" stop-color="#6D7DB6" stop-opacity="0.840625"/>
<stop offset="0.8625" stop-color="#5CAFB9" stop-opacity="0.958132"/>
<stop offset="1" stop-color="#56C1BA" stop-opacity="0.5"/>
</linearGradient>
<linearGradient id="paint2_linear_690_29533" x1="3.91111" y1="21.9778" x2="176" y2="21.9778" gradientUnits="userSpaceOnUse">
<stop stop-color="#5F70AC"/>
<stop offset="0.133333" stop-color="#526195" stop-opacity="0.5"/>
<stop offset="0.836458" stop-color="#5999AD" stop-opacity="0.5"/>
<stop offset="1" stop-color="#5AA6B2"/>
</linearGradient>
</defs>
</svg>
