<svg width="54" height="24" viewBox="0 0 54 24" fill="none" xmlns="http://www.w3.org/2000/svg">
<path d="M52.9963 9.84375L53.029 14.2241L38.2031 22.9903L38.2693 18.546L52.9963 9.84375Z" stroke="white" stroke-miterlimit="10" stroke-linecap="square" stroke-linejoin="round"/>
<path d="M45.5688 9.84325L41.8785 12.0152L41.8777 12.0144L38.1309 9.82347L38.0752 5.41797L45.5688 9.84325Z" stroke="white" stroke-miterlimit="10" stroke-linecap="square" stroke-linejoin="round"/>
<path d="M38.269 18.5489L38.2028 22.9932L27.0323 16.3929L23.2959 14.1852L19.5699 11.9829L15.8477 9.78354V5.375L38.269 18.5489Z" stroke="white" stroke-miterlimit="10" stroke-linecap="square" stroke-linejoin="round"/>
<path d="M38.0751 5.41797L38.1309 9.82347L34.4257 12.0121L30.7012 9.8113L38.0751 5.41797Z" stroke="white" stroke-miterlimit="10" stroke-linecap="square" stroke-linejoin="round"/>
<path d="M27.0326 16.3913L27.0312 16.3928L15.9149 22.9467L15.9082 18.5473L23.2962 14.1836L27.0326 16.3913Z" stroke="white" stroke-miterlimit="10" stroke-linecap="square" stroke-linejoin="round"/>
<path d="M15.9077 18.5486L15.9143 22.948L1 14.1401V9.74219L15.9077 18.5486Z" stroke="white" stroke-miterlimit="10" stroke-linecap="square" stroke-linejoin="round"/>
<path d="M15.848 5.375V9.78354L12.1436 11.9661L8.40723 9.76224L15.848 5.375Z" stroke="white" stroke-miterlimit="10" stroke-linecap="square" stroke-linejoin="round"/>
<path d="M30.7008 9.80947L34.4253 12.0103L38.1476 14.2096L41.878 12.0141L45.5683 9.84217L38.0748 5.41614L30.7008 9.80947ZM26.9741 7.60406L38.08 1.03954L52.9958 9.84217L38.2695 18.5475L15.8489 5.37431L8.40662 9.7608L12.143 11.9662L15.8735 14.1663L19.5697 11.9822L23.2964 14.1876L15.9076 18.5513L1 9.74559L15.7909 1L26.9741 7.60406Z" stroke="white" stroke-miterlimit="10" stroke-linecap="square" stroke-linejoin="round"/>
<path d="M30.7011 9.80785L26.9736 7.60547" stroke="white" stroke-miterlimit="10" stroke-linecap="square" stroke-linejoin="round"/>
</svg>
