<svg width="150" height="37" viewBox="0 0 150 37" fill="none" xmlns="http://www.w3.org/2000/svg">
<path fill-rule="evenodd" clip-rule="evenodd" d="M54.1722 0C52.7559 0 51.2925 0.749815 51.2925 2.08263C51.2925 3.49914 51.3228 5.2996 51.2925 11.1172C51.2599 17.3602 51.2741 17.7005 51.6158 18.877C52.9874 23.6 57.2477 27.2519 62.5578 28.2563C64.2908 28.5843 67.336 28.5841 69.0685 28.2563C73.2559 27.4638 76.8359 25.0187 78.875 21.5581C80.3062 19.1294 80.5551 17.2064 80.3912 9.84458C80.0825 3.41534 81.0822 2.03038 79.166 1.12845C78.0653 0.610381 76.2841 0.704307 75.3172 1.33252C73.834 2.41558 74.3432 3.1654 74.3171 11.0359L74.2495 16.1509C74.2391 16.9365 74.0406 17.7082 73.6705 18.4013V18.4013C72.662 20.2899 70.5363 21.8545 68.2239 22.4102C66.9675 22.7121 64.6588 22.7121 63.4024 22.4102C61.09 21.8545 58.9643 20.2899 57.9559 18.4013V18.4013C57.5858 17.7082 57.3872 16.9365 57.3768 16.1509L57.3092 11.0359C57.23 5.04133 57.3092 3.58245 57.3092 2.08263C57.0593 0.749815 55.8385 0 54.1722 0ZM11.4547 11.2717C8.39716 11.5274 6.0981 12.5037 4.03464 14.4231C2.63783 15.7225 1.84747 16.8004 1.18866 18.3053C0.0976604 20.797 -0.105435 22.8478 0.0428002 29.8753C0.168692 35.8465 0.159186 35.8019 1.44411 36.4681C3.16541 37.3604 5.56502 36.5833 5.9622 35.0048C6.04407 34.6793 6.1136 31.7481 6.11694 28.4909C6.12328 22.1473 6.16496 21.7581 6.99618 20.2614C7.67466 19.0398 8.52205 18.2487 9.74912 17.6914C10.8226 17.2039 10.9388 17.185 12.8686 17.185C14.6924 17.185 14.9585 17.2221 15.8228 17.5957C17.526 18.3322 18.824 19.8725 19.3696 21.805C19.5772 22.5403 19.627 23.8376 19.6345 28.7155C19.6412 32.9527 19.7025 34.8748 19.8429 35.2445C20.417 36.7555 23.0911 37.3332 24.735 36.3015C25.7874 35.641 25.7945 35.593 25.796 29.2368C25.7967 26.0524 25.8737 23.0461 25.9689 22.4918C26.1947 21.1773 27.0699 19.498 27.951 18.6895C29.1127 17.6234 30.2466 17.2039 32.158 17.1332C35.0034 17.0276 36.8071 17.8015 38.0989 19.6821C39.2015 21.2873 39.2022 21.2931 39.2976 28.5678C39.3621 33.4903 39.4382 35.2691 39.5949 35.522C40.4063 36.8308 42.7527 37.238 44.21 36.3229C45.3039 35.6361 45.2952 35.6976 45.3065 28.5518C45.313 24.5223 45.2488 21.7615 45.1351 21.1844C44.2044 16.4611 40.9073 12.8541 36.4208 11.6509C34.2716 11.0746 30.9801 11.1018 28.7954 11.714C26.9361 12.235 24.7142 13.7775 23.1773 15.6143L22.8185 16.0433L21.0967 14.448C19.7541 13.2039 19.1091 12.7309 18.1668 12.2991C16.2666 11.4285 13.9049 11.067 11.4547 11.2717ZM115.586 11.7557C114.919 11.9701 114.18 12.6106 113.898 13.2192C113.711 13.6231 113.669 15.6186 113.669 24.0694V34.4247L114.044 35.1022C115.158 37.1142 119.024 36.8041 119.672 34.6506C119.894 33.9147 119.893 14.1436 119.672 13.4076C119.26 12.04 117.241 11.2236 115.586 11.7557ZM127.529 11.7308C126.767 11.8884 126.165 12.3254 125.718 13.0463C125.266 13.7769 125.246 14.5206 125.657 15.3391C125.828 15.6775 127.699 17.7331 129.817 19.907L133.666 23.8596L129.712 27.8787C127.537 30.0893 125.589 32.1805 125.382 32.5258C124.977 33.2036 124.901 34.058 125.185 34.7492C125.56 35.6659 126.774 36.4897 127.75 36.4897C128.94 36.4897 129.421 36.1053 133.217 32.1225C135.241 29.9982 137.025 28.1339 137.18 27.9796C137.451 27.7115 137.633 27.8753 141.244 31.6276C143.323 33.7884 145.288 35.7422 145.611 35.9693C147.81 37.517 150.938 35.0856 149.732 32.7656C149.569 32.4517 147.61 30.3211 145.38 28.031L141.324 23.8672L142.628 22.5134C143.346 21.7687 145.148 19.906 146.633 18.3737C149.48 15.4363 149.836 14.8914 149.596 13.8264C149.448 13.1681 148.914 12.462 148.245 12.0387C147.584 11.6211 146.331 11.5665 145.584 11.923C144.918 12.2407 144.638 12.5105 140.799 16.5382C138.15 19.317 137.416 20.0033 137.261 19.8454C137.154 19.7358 135.484 17.9849 133.551 15.9544C131.617 13.924 129.823 12.1512 129.564 12.0147C128.942 11.688 128.221 11.5874 127.529 11.7308ZM86.7086 12.2015C85.1171 12.6263 84.4744 14.5759 85.5213 15.8037C86.2186 16.6214 86.4497 16.6466 93.251 16.6466C97.0469 16.6466 99.5012 16.7031 99.4675 16.7897C99.437 16.8684 96.3731 20.259 92.6589 24.3243C88.9447 28.3897 85.7369 32.0048 85.5306 32.358C84.7859 33.6327 85.2143 35.1948 86.49 35.8562C87.1103 36.1779 87.2449 36.182 96.9505 36.182H106.783L107.349 35.8328C108.455 35.1516 108.796 33.8639 108.15 32.805C107.434 31.6295 107.571 31.6499 100.048 31.5978L93.3469 31.5513L99.9753 24.2908C103.621 20.2974 106.841 16.728 107.131 16.3588C108.339 14.8203 107.888 13.0753 106.089 12.3211C105.46 12.0578 104.802 12.0395 96.3272 12.0492C91.3193 12.055 87.0013 12.1233 86.7086 12.2015Z" fill="#001871"/>
<rect x="51.4233" y="32.2415" width="28.3263" height="4.66551" rx="2.33276" fill="url(#paint0_linear_123_60)"/>
<defs>
<linearGradient id="paint0_linear_123_60" x1="54.7558" y1="34.5742" x2="76.0839" y2="34.5742" gradientUnits="userSpaceOnUse">
<stop stop-color="#27C328"/>
<stop offset="1" stop-color="#D57300" stop-opacity="0.442708"/>
</linearGradient>
</defs>
</svg>
