<svg width="20" height="20" viewBox="0 0 20 20" fill="none" xmlns="http://www.w3.org/2000/svg">
<path fill-rule="evenodd" clip-rule="evenodd" d="M11.7741 1.41413C10.7497 0.549457 9.25102 0.549457 8.22655 1.41413L7.12873 2.34076C6.98359 2.46326 6.80397 2.53766 6.61472 2.55367L5.18321 2.67473C3.8474 2.7877 2.7877 3.8474 2.67473 5.18321L2.55367 6.61472C2.53766 6.80397 2.46326 6.98358 2.34076 7.12873L1.41413 8.22654C0.549457 9.25101 0.549457 10.7497 1.41413 11.7741L2.34076 12.8719C2.46326 13.017 2.53766 13.1967 2.55367 13.3859L2.67473 14.8175C2.7877 16.1532 3.8474 17.213 5.18321 17.3259L6.61472 17.447C6.80397 17.463 6.98359 17.5374 7.12873 17.6599L8.22655 18.5865C9.25102 19.4512 10.7497 19.4512 11.7741 18.5865L12.8719 17.6599C13.0171 17.5374 13.1967 17.463 13.3859 17.447L14.8175 17.3259C16.1532 17.213 17.2129 16.1532 17.3259 14.8175L17.447 13.3859C17.463 13.1967 17.5374 13.017 17.6599 12.8719L18.5865 11.7741C19.4512 10.7497 19.4512 9.25101 18.5865 8.22654L17.6599 7.12873C17.5374 6.98358 17.463 6.80397 17.447 6.61472L17.3259 5.18321C17.2129 3.8474 16.1532 2.7877 14.8175 2.67473L13.3859 2.55367C13.1967 2.53766 13.0171 2.46326 12.8719 2.34076L11.7741 1.41413ZM14.2503 8.29208C14.5725 7.96989 14.5725 7.44753 14.2503 7.12535C13.9281 6.80317 13.4058 6.80317 13.0836 7.12535L9.08363 11.1253L6.917 8.95868C6.59482 8.63647 6.07246 8.63647 5.75028 8.95868C5.42809 9.28089 5.42809 9.80321 5.75028 10.1254L8.50027 12.8754C8.82247 13.1976 9.34479 13.1976 9.667 12.8754L14.2503 8.29208Z" fill="white"/>
</svg>
