<svg width="60" height="60" viewBox="0 0 60 60" fill="none" xmlns="http://www.w3.org/2000/svg">
<g filter="url(#filter0_d_13_160)">
<path d="M30 19.2188C27.8677 19.2188 25.7832 19.8511 24.0103 21.0357C22.2373 22.2204 20.8554 23.9042 20.0394 25.8742C19.2234 27.8442 19.0099 30.012 19.4259 32.1033C19.8419 34.1947 20.8687 36.1157 22.3765 37.6235C23.8843 39.1313 25.8053 40.1581 27.8967 40.5741C29.988 40.9901 32.1558 40.7766 34.1258 39.9606C36.0958 39.1446 37.7796 37.7627 38.9643 35.9897C40.1489 34.2168 40.7812 32.1323 40.7812 30C40.7812 27.1406 39.6454 24.3984 37.6235 22.3765C35.6016 20.3546 32.8594 19.2188 30 19.2188ZM30 37.9688C28.4239 37.9688 26.8833 37.5014 25.5728 36.6258C24.2623 35.7502 23.241 34.5056 22.6378 33.0495C22.0347 31.5934 21.8769 29.9912 22.1844 28.4454C22.4918 26.8996 23.2508 25.4797 24.3652 24.3652C25.4797 23.2508 26.8996 22.4918 28.4454 22.1844C29.9912 21.8769 31.5934 22.0347 33.0495 22.6378C34.5056 23.241 35.7502 24.2623 36.6258 25.5728C37.5014 26.8833 37.9688 28.4239 37.9688 30C37.9626 32.1115 37.121 34.1348 35.6279 35.6279C34.1348 37.121 32.1115 37.9626 30 37.9688ZM40.3125 7.03125H19.6875C16.3309 7.03125 13.1117 8.36467 10.7382 10.7382C8.36467 13.1117 7.03125 16.3309 7.03125 19.6875V40.3125C7.03125 43.6691 8.36467 46.8883 10.7382 49.2618C13.1117 51.6353 16.3309 52.9688 19.6875 52.9688H40.3125C43.6691 52.9688 46.8883 51.6353 49.2618 49.2618C51.6353 46.8883 52.9688 43.6691 52.9688 40.3125V19.6875C52.9688 16.3309 51.6353 13.1117 49.2618 10.7382C46.8883 8.36467 43.6691 7.03125 40.3125 7.03125ZM50.1562 40.3125C50.1562 42.9232 49.1191 45.427 47.2731 47.2731C45.427 49.1191 42.9232 50.1562 40.3125 50.1562H19.6875C17.0768 50.1562 14.573 49.1191 12.7269 47.2731C10.8809 45.427 9.84375 42.9232 9.84375 40.3125V19.6875C9.84375 17.0768 10.8809 14.573 12.7269 12.7269C14.573 10.8809 17.0768 9.84375 19.6875 9.84375H40.3125C42.9232 9.84375 45.427 10.8809 47.2731 12.7269C49.1191 14.573 50.1562 17.0768 50.1562 19.6875V40.3125ZM44.5312 17.8125C44.5312 18.276 44.3938 18.7292 44.1363 19.1146C43.8787 19.5 43.5127 19.8004 43.0844 19.9778C42.6561 20.1552 42.1849 20.2016 41.7303 20.1112C41.2756 20.0208 40.858 19.7976 40.5302 19.4698C40.2024 19.142 39.9792 18.7244 39.8888 18.2697C39.7984 17.8151 39.8448 17.3439 40.0222 16.9156C40.1996 16.4873 40.5 16.1213 40.8854 15.8637C41.2708 15.6062 41.7239 15.4688 42.1875 15.4688C42.8091 15.4688 43.4052 15.7157 43.8448 16.1552C44.2843 16.5948 44.5312 17.1909 44.5312 17.8125Z" fill="url(#paint0_linear_13_160)"/>
</g>
<defs>
<filter id="filter0_d_13_160" x="-17.9688" y="-13.9688" width="95.9375" height="95.9375" filterUnits="userSpaceOnUse" color-interpolation-filters="sRGB">
<feFlood flood-opacity="0" result="BackgroundImageFix"/>
<feColorMatrix in="SourceAlpha" type="matrix" values="0 0 0 0 0 0 0 0 0 0 0 0 0 0 0 0 0 0 127 0" result="hardAlpha"/>
<feOffset dy="4"/>
<feGaussianBlur stdDeviation="12.5"/>
<feComposite in2="hardAlpha" operator="out"/>
<feColorMatrix type="matrix" values="0 0 0 0 0 0 0 0 0 0 0 0 0 0 0 0 0 0 0.15 0"/>
<feBlend mode="normal" in2="BackgroundImageFix" result="effect1_dropShadow_13_160"/>
<feBlend mode="normal" in="SourceGraphic" in2="effect1_dropShadow_13_160" result="shape"/>
</filter>
<linearGradient id="paint0_linear_13_160" x1="30" y1="7.03125" x2="30" y2="52.9688" gradientUnits="userSpaceOnUse">
<stop stop-color="#8A31C8"/>
<stop offset="1" stop-color="#FF00E5"/>
</linearGradient>
</defs>
</svg>
