<svg width="55" height="54" viewBox="0 0 55 54" fill="none" xmlns="http://www.w3.org/2000/svg">
<g filter="url(#filter0_d_13_165)">
<path d="M17.1875 20.2501H8.02079C7.71689 20.2501 7.42545 20.3686 7.21056 20.5796C6.99568 20.7905 6.87495 21.0767 6.87495 21.3751V48.3751C6.87495 48.6734 6.99568 48.9596 7.21056 49.1706C7.42545 49.3815 7.71689 49.5001 8.02079 49.5001H17.1875C17.4913 49.5001 17.7828 49.3815 17.9977 49.1706C18.2126 48.9596 18.3333 48.6734 18.3333 48.3751V21.3751C18.3333 21.0767 18.2126 20.7905 17.9977 20.5796C17.7828 20.3686 17.4913 20.2501 17.1875 20.2501ZM16.0416 47.2501H9.16662V22.5001H16.0416V47.2501ZM41.25 20.2501C38.7635 20.2501 36.3458 21.0556 34.375 22.5428V21.3751C34.375 21.0767 34.2542 20.7905 34.0393 20.5796C33.8245 20.3686 33.533 20.2501 33.2291 20.2501H24.0625C23.7586 20.2501 23.4671 20.3686 23.2522 20.5796C23.0373 20.7905 22.9166 21.0767 22.9166 21.3751V48.3751C22.9166 48.6734 23.0373 48.9596 23.2522 49.1706C23.4671 49.3815 23.7586 49.5001 24.0625 49.5001H33.2291C33.533 49.5001 33.8245 49.3815 34.0393 49.1706C34.2542 48.9596 34.375 48.6734 34.375 48.3751V36.0001C34.375 35.105 34.7371 34.2465 35.3818 33.6136C36.0264 32.9806 36.9008 32.6251 37.8125 32.6251C38.7241 32.6251 39.5985 32.9806 40.2431 33.6136C40.8878 34.2465 41.25 35.105 41.25 36.0001V48.3751C41.25 48.6734 41.3707 48.9596 41.5856 49.1706C41.8004 49.3815 42.0919 49.5001 42.3958 49.5001H51.5625C51.8663 49.5001 52.1578 49.3815 52.3727 49.1706C52.5876 48.9596 52.7083 48.6734 52.7083 48.3751V31.5001C52.7047 28.5175 51.4963 25.6581 49.3482 23.5491C47.2001 21.44 44.2878 20.2536 41.25 20.2501ZM50.4166 47.2501H43.5416V36.0001C43.5416 34.5082 42.938 33.0775 41.8636 32.0226C40.7892 30.9677 39.3319 30.3751 37.8125 30.3751C36.293 30.3751 34.8357 30.9677 33.7613 32.0226C32.6869 33.0775 32.0833 34.5082 32.0833 36.0001V47.2501H25.2083V22.5001H32.0833V25.2068C32.0832 25.4398 32.1569 25.6671 32.294 25.8572C32.4312 26.0474 32.6251 26.191 32.849 26.2683C33.0729 26.3456 33.3157 26.3528 33.5438 26.2888C33.772 26.2248 33.9744 26.0928 34.1229 25.9111C35.2997 24.4465 36.9127 23.379 38.737 22.8574C40.5612 22.3358 42.5058 22.3862 44.2995 23.0014C46.0932 23.6167 47.6466 24.7662 48.7432 26.2897C49.8397 27.8131 50.4247 29.6346 50.4166 31.5001V47.2501ZM13.4475 4.50456C13.1782 4.48593 12.908 4.48443 12.6385 4.50006C11.7809 4.44277 10.9204 4.55897 10.1104 4.84148C9.3004 5.12398 8.55809 5.56676 7.92947 6.1424C7.30085 6.71804 6.7993 7.41427 6.4559 8.18796C6.11249 8.96166 5.93455 9.79634 5.93308 10.6403C5.92596 11.4755 6.09367 12.3031 6.42579 13.072C6.75792 13.8409 7.24738 14.5346 7.86384 15.1101C8.48029 15.6856 9.21059 16.1307 10.0094 16.4176C10.8083 16.7046 11.6587 16.8273 12.5079 16.7783H12.572C13.3929 16.8347 14.217 16.7319 14.9973 16.4756C15.7777 16.2194 16.499 15.8147 17.12 15.2847C17.7411 14.7548 18.2497 14.1099 18.617 13.387C18.9842 12.664 19.2028 11.8771 19.2603 11.0712C19.3177 10.2653 19.213 9.45615 18.952 8.68999C18.691 7.92384 18.2788 7.21566 17.739 6.60589C17.1993 5.99612 16.5425 5.49671 15.8061 5.13616C15.0698 4.77562 14.2683 4.561 13.4475 4.50456ZM13.3672 14.5351C13.1037 14.5576 12.8379 14.5576 12.572 14.5283H12.5079C11.9563 14.569 11.4022 14.4964 10.8809 14.315C10.3595 14.1336 9.88246 13.8475 9.48008 13.4749C9.07771 13.1023 8.75888 12.6515 8.54395 12.1511C8.32903 11.6507 8.22274 11.1119 8.23185 10.5689C8.24097 10.0259 8.3653 9.49081 8.59691 8.99767C8.82852 8.50454 9.16231 8.06424 9.57698 7.70488C9.99165 7.34552 10.4781 7.07501 11.0052 6.91061C11.5324 6.7462 12.0886 6.69152 12.6385 6.75006C13.69 6.65518 14.7368 6.97429 15.5486 7.63718C16.3604 8.30008 16.8708 9.25246 16.9675 10.2848C17.0641 11.3172 16.7391 12.3449 16.0639 13.142C15.3887 13.9391 14.4187 14.4402 13.3672 14.5351Z" fill="url(#paint0_linear_13_165)"/>
</g>
<defs>
<filter id="filter0_d_13_165" x="-19.0671" y="-16.5142" width="96.7754" height="95.0142" filterUnits="userSpaceOnUse" color-interpolation-filters="sRGB">
<feFlood flood-opacity="0" result="BackgroundImageFix"/>
<feColorMatrix in="SourceAlpha" type="matrix" values="0 0 0 0 0 0 0 0 0 0 0 0 0 0 0 0 0 0 127 0" result="hardAlpha"/>
<feOffset dy="4"/>
<feGaussianBlur stdDeviation="12.5"/>
<feComposite in2="hardAlpha" operator="out"/>
<feColorMatrix type="matrix" values="0 0 0 0 0 0 0 0 0 0 0 0 0 0 0 0 0 0 0.15 0"/>
<feBlend mode="normal" in2="BackgroundImageFix" result="effect1_dropShadow_13_165"/>
<feBlend mode="normal" in="SourceGraphic" in2="effect1_dropShadow_13_165" result="shape"/>
</filter>
<linearGradient id="paint0_linear_13_165" x1="29.3206" y1="4.48584" x2="29.3206" y2="49.5001" gradientUnits="userSpaceOnUse">
<stop stop-color="#8A31C8"/>
<stop offset="1" stop-color="#FF00E5"/>
</linearGradient>
</defs>
</svg>
